<?xml version="1.0" encoding="iso-8859-1"?>
<!-- Generator: Adobe Illustrator 19.0.0, SVG Export Plug-In . SVG Version: 6.00 Build 0)  -->
<svg fill="white" version="1.1" id="Layer_1" xmlns="http://www.w3.org/2000/svg" xmlns:xlink="http://www.w3.org/1999/xlink" x="0px" y="0px"
	 viewBox="0 0 511.999 511.999" style="enable-background:new 0 0 511.999 511.999;" xml:space="preserve">
<g>
	<g>
		<path d="M442.435,18.296c-24.393-24.395-64.09-24.396-88.485,0l-2.677,2.677l-9.716-9.715c-3.445-3.446-9.031-3.445-12.474,0
			c-3.445,3.445-3.445,9.031,0,12.474l15.953,15.952l12.733,12.733c10.389,10.389,27.294,10.39,37.684,0
			c0.982-0.983,2.29-1.524,3.679-1.524c1.39,0,2.697,0.541,3.68,1.524c1.401,1.401,1.554,3.036,1.521,3.885s-0.314,2.466-1.82,3.753
			L274.507,169.422l-12.713-12.713c-3.445-3.445-9.031-3.445-12.474,0c-3.445,3.445-3.445,9.03,0,12.474l11.733,11.733
			l-14.884,12.717l-5.911-5.911l0.853-0.853c3.445-3.445,3.445-9.03,0-12.474c-3.445-3.445-9.03-3.445-12.474,0l-15.29,15.29
			c-3.445,3.445-3.445,9.03,0,12.474c1.722,1.722,3.98,2.584,6.237,2.584s4.515-0.861,6.237-2.584l1.963-1.963l4.932,4.932
			L87.711,329.019c-26.941,23.017-40.216,57.728-35.512,92.849c4.705,35.121,26.646,65.114,58.694,80.231
			c14.157,6.678,29.256,9.901,44.22,9.9c29.8,0,59.068-12.784,79.282-36.512l2.951-3.464c18.103-21.253,47.214-30.032,73.881-22.748
			c2.572,10.891,12.351,19.03,24.016,19.03h2.028c13.619,0,24.699-11.079,24.699-24.698V298.941
			c0-13.619-11.079-24.699-24.699-24.699h-2.028c-11.616,0-21.358,8.071-23.981,18.891c-50.793,15.375-95.967,44.529-130.939,84.586
			c-3.161,3.621-6.271,7.372-9.241,11.149c-0.887,1.128-2.071,1.35-2.697,1.382c-0.652,0.031-1.908-0.074-2.964-1.168
			c-1.433-1.483-1.413-3.875,0.046-5.334l172.667-172.667l13.469,13.469c1.722,1.722,3.98,2.584,6.237,2.584
			s4.515-0.861,6.237-2.584c3.445-3.445,3.445-9.031,0-12.474l-13.469-13.469l10.985-10.985l8.414,8.414l-0.864,0.864
			c-3.445,3.445-3.445,9.031,0,12.474c1.722,1.722,3.98,2.584,6.237,2.584c2.257,0,4.515-0.861,6.237-2.584l15.29-15.29
			c3.445-3.445,3.445-9.031,0-12.474c-3.445-3.445-9.03-3.445-12.474,0l-1.95,1.95l-8.414-8.414l68.365-68.365
			C466.831,82.386,466.831,42.692,442.435,18.296z M328.189,298.941c0-3.891,3.165-7.057,7.057-7.057h2.028
			c3.891,0,7.057,3.165,7.057,7.057v144.665c0,3.891-3.165,7.056-7.057,7.056h-2.028c-3.891,0-7.057-3.165-7.057-7.056V298.941z
			 M361.595,162.674l-5.962-5.962c-3.444-3.445-9.029-3.445-12.474,0c-3.445,3.445-3.445,9.031,0,12.474l5.962,5.962l-10.985,10.985
			l-5.962-5.962c-3.445-3.445-9.031-3.445-12.474,0c-3.445,3.445-3.445,9.031,0,12.474l5.962,5.962L152.994,371.275
			c-8.22,8.22-8.335,21.708-0.258,30.068c4.315,4.465,10.335,6.844,16.548,6.528c6.156-0.314,11.866-3.264,15.666-8.094
			c2.785-3.541,5.7-7.058,8.665-10.452c31.443-36.016,71.683-62.636,116.931-77.472v119.124
			c-31.685-6.571-65.298,4.565-86.629,29.607l-2.951,3.464c-25.213,29.598-67.381,38.684-102.545,22.098
			c-26.61-12.552-44.829-37.456-48.735-66.617s7.117-57.982,29.486-77.094l146.055-124.787l9.722,9.722
			c1.722,1.722,3.98,2.584,6.237,2.584c2.257,0,4.515-0.861,6.237-2.584c3.445-3.445,3.445-9.03,0-12.474l-8.742-8.742
			l14.884-12.718l7.659,7.659c1.722,1.722,3.98,2.584,6.237,2.584c2.257,0,4.515-0.861,6.237-2.584c3.445-3.445,3.445-9.03,0-12.474
			l-6.679-6.679L413.971,73.472c4.828-4.125,7.74-10.129,7.988-16.474c0.249-6.346-2.183-12.56-6.673-17.052
			c-4.315-4.315-10.053-6.691-16.156-6.691s-11.84,2.377-16.154,6.691c-1.701,1.701-3.961,2.637-6.367,2.637
			s-4.666-0.936-6.367-2.637l-6.495-6.496l2.677-2.677c17.518-17.516,46.018-17.518,63.536,0
			c8.485,8.486,13.159,19.768,13.159,31.768c0,12-4.674,23.282-13.159,31.768L361.595,162.674z"/>
	</g>
</g>
<g>
	<g>
		<circle cx="191.242" cy="298.543" r="8.789"/>
	</g>
</g>
<g>
	<g>
		<circle cx="212.413" cy="277.431" r="8.789"/>
	</g>
</g>
<g>
	<g>
		<circle cx="234.925" cy="254.908" r="8.789"/>
	</g>
</g>
<g>
</g>
<g>
</g>
<g>
</g>
<g>
</g>
<g>
</g>
<g>
</g>
<g>
</g>
<g>
</g>
<g>
</g>
<g>
</g>
<g>
</g>
<g>
</g>
<g>
</g>
<g>
</g>
<g>
</g>
</svg>
